<svg version="1.1" id="Layer_1" xmlns="http://www.w3.org/2000/svg" xmlns:xlink="http://www.w3.org/1999/xlink" x="0px" y="0px"
	 viewBox="0 0 1366 768" style="enable-background:new 0 0 1366 768;" xml:space="preserve">
<style type="text/css">
	.st0{fill:#FFFFFF; background: transparent;}
</style>
<g>
	<g>
		<path d="M371.58,485.53c2.46-20.05-3.81-31.57-25.49-32.22c-5.28-0.16-10.57-1.03-15.8-1.85c-12.64-1.98-23.76-7.98-18.79-20.57
			c2.44-6.18,14.78-10.75,23.47-12.53c8.23-1.68,17.56,1.24,28.55,2.35c7.15-59.38,13.18-117.83,21.53-175.98
			c6.23-43.4,17.38-85.9,46.41-122c20.52-25.52,29.04-26.27,54.97-6.9c22.45,16.78,45.29,33.14,67.14,50.57
			c10.1,8.06,18.99,10.63,32.46,6.85c59.5-16.69,119.36-16.59,179.61-1.93c8.48,2.06,20.98-0.7,28.27-5.55
			c25.24-16.81,49.78-34.71,73.06-53.79c17.49-14.34,30.52-10.86,44.42,3.59c32.24,33.49,44.66,74.54,51.99,117.31
			C974,294.93,983.7,357.11,994,420.58c10.4-1.05,21.17-4.18,30.95-2.46c7.7,1.36,14.17,8.71,21.19,13.39
			c-5.45,6.41-10.1,13.67-16.66,18.87c-3.41,2.7-10.17,2.23-15.44,2.34c-21.17,0.47-31.96,9.63-29.65,32.72
			c7.56,0,16.37-1.96,23.31,0.54c7.17,2.59,17.25,9.39,17.4,14.57c0.17,5.85-10.59,17.75-14.39,17.03
			c-41.64-7.93-52.16,21.91-70.41,45.37c-136.24,175.07-429.97,159.26-543.28-29.03c-6.56-10.9-13.74-15.11-26.31-14.74
			c-9.02,0.27-19.12,1.22-26.82-2.03c-6.01-2.54-12.8-11.33-12.36-16.87c0.41-5.24,8.97-11.98,15.47-14.19
			C354.24,483.63,363.2,485.53,371.58,485.53z M435.44,523.75c36.29,77.93,154.51,134.08,265.87,126.87
			c108.19-7,200.76-76.51,218.47-126.52c-26.55,0-53.76-0.1-80.98,0.04c-13.07,0.07-24.76-4.06-21.95-17.3
			c1.38-6.51,12.89-15.03,20.64-15.83c28.58-2.95,57.51-3.98,86.3-3.87c17.33,0.07,25.25-4.97,22.08-22.82
			c-7.31,0.82-14.73,1.44-22.08,2.52c-26.97,3.95-53.97,7.71-80.83,12.23c-14.01,2.35-26.9-0.17-26.59-14.17
			c0.15-6.65,13-13.58,21.02-19.28c3.15-2.24,8.81-1.37,13.3-2.06c34.29-5.3,68.58-10.64,107.85-16.74
			c-4.48-26.99-8.45-52.42-12.97-77.76c-4.28-23.99-9.43-47.84-13.64-71.83c-3.89-22.19-4.65-45.1-11.13-66.57
			c-7.13-23.64-19.21-46-30.32-71.65c-31.27,23.03-57.87,41.65-83.17,61.68c-13.09,10.36-24.94,12.15-41.38,7.03
			c-60.24-18.74-121.22-18.28-180.87,1.59c-18,6-29.6,3.1-42.93-7.43c-25.81-20.36-52.57-39.7-83.15-62.63
			c-10.47,24.82-23.59,45.46-27.65,67.54c-12.06,65.56-20.42,131.7-30.51,197.58c-2.66,17.38,3.73,25.12,23.57,27.21
			c33.86,3.56,67.58,9.1,100.86,15.91c6.41,1.31,10.51,12.32,15.68,18.86c-7.31,4.44-14.17,9.89-22.1,12.9
			c-4.24,1.61-10.36-0.89-15.6-1.67c-31.15-4.63-62.29-9.3-94.08-14.05c0.13,17.2,5.99,23.92,23.07,23.65
			c26.49-0.43,53.02,1.77,79.53,2.81c13.74,0.54,29.93-0.89,28.41,18.33c-1.48,18.74-17.66,15.48-31.16,15.43
			C484.82,523.68,460.63,523.75,435.44,523.75z"/>
		<path class="st0" d="M435.44,523.75c25.19,0,49.38-0.06,73.57,0.02c13.5,0.05,29.68,3.31,31.16-15.43
			c1.52-19.22-14.67-17.79-28.41-18.33c-26.51-1.04-53.05-3.24-79.53-2.81c-17.08,0.28-22.95-6.44-23.07-23.65
			c31.79,4.75,62.93,9.42,94.08,14.05c5.24,0.78,11.36,3.28,15.6,1.67c7.93-3.02,14.79-8.47,22.1-12.9
			c-5.17-6.54-9.27-17.54-15.68-18.86c-33.28-6.82-66.99-12.35-100.86-15.91c-19.84-2.09-26.23-9.83-23.57-27.21
			c10.09-65.88,18.45-132.02,30.51-197.58c4.06-22.08,17.19-42.72,27.65-67.54c30.58,22.93,57.33,42.27,83.15,62.63
			c13.34,10.52,24.93,13.42,42.93,7.43c59.64-19.87,120.63-20.34,180.87-1.59c16.44,5.12,28.29,3.33,41.38-7.03
			c25.31-20.03,51.91-38.64,83.17-61.68c11.11,25.65,23.19,48.01,30.32,71.65c6.48,21.47,7.24,44.38,11.13,66.57
			c4.2,24,9.36,47.85,13.64,71.83c4.52,25.34,8.49,50.77,12.97,77.76c-39.27,6.1-73.55,11.44-107.85,16.74
			c-4.49,0.69-10.15-0.18-13.3,2.06c-8.01,5.7-20.86,12.63-21.02,19.28c-0.32,14,12.58,16.52,26.59,14.17
			c26.86-4.51,53.86-8.28,80.83-12.23c7.35-1.08,14.77-1.7,22.08-2.52c3.17,17.85-4.76,22.88-22.08,22.82
			c-28.79-0.11-57.72,0.92-86.3,3.87c-7.74,0.8-19.25,9.32-20.64,15.83c-2.81,13.24,8.88,17.37,21.95,17.3
			c27.21-0.14,54.43-0.04,80.98-0.04C902.07,574.11,809.5,643.61,701.3,650.62C589.94,657.83,471.72,601.68,435.44,523.75z
			 M678.42,555.61c45.29,26.26,91.76,13.49,103.78-28.48c3.55-12.37,5.43-25-11.53-29.33c-15.84-4.05-21.41,5.81-23.41,18.61
			c-0.52,3.33-2.29,6.9-4.6,9.52c-9.26,10.49-20.61,14.43-33.95,6.7c-12.88-7.46-13.69-16.95-5.43-28.57
			c7.91-11.13,15.27-22.71,21.59-34.67c7.81-14.8,1.81-26.06-15.38-27.09c-21.13-1.27-42.54-1.34-63.62,0.3
			c-16.31,1.27-22.42,11.44-14.76,25.56c5.77,10.63,14.73,19.86,19.76,30.71c3.71,8.01,6.72,18.8,3.75,26.16
			c-2.25,5.57-16.08,12.16-21.82,10.34c-9.27-2.94-20.14-11.2-23.05-19.44c-4.43-12.52-8.6-21.9-24.09-18.04
			c-17.27,4.3-14.99,17.27-11.49,29.34C586.31,569.21,631.75,581.51,678.42,555.61z M775.81,351.64
			c-17.46-0.49-31.48,12.14-31.98,28.82c-0.52,17.23,11.85,29.56,30.15,30.04c17.84,0.47,31.74-11.78,32.25-28.44
			C806.74,365.64,793.23,352.13,775.81,351.64z M580.53,351.66c-17.14,0.55-31.16,14.4-30.73,30.35
			c0.43,16.03,15.07,28.72,32.56,28.2c17.91-0.53,30.79-13.24,30.36-29.97C612.3,364.15,597.62,351.11,580.53,351.66z"/>
		<path d="M678.42,555.61c-46.66,25.89-92.11,13.59-104.26-28.38c-3.5-12.07-5.78-25.04,11.49-29.34
			c15.49-3.86,19.66,5.52,24.09,18.04c2.92,8.23,13.79,16.5,23.05,19.44c5.74,1.82,19.57-4.77,21.82-10.34
			c2.97-7.36-0.04-18.15-3.75-26.16c-5.03-10.85-14-20.08-19.76-30.71c-7.66-14.12-1.55-24.3,14.76-25.56
			c21.09-1.64,42.49-1.57,63.62-0.3c17.2,1.03,23.19,12.3,15.38,27.09c-6.31,11.97-13.67,23.54-21.59,34.67
			c-8.26,11.62-7.46,21.11,5.43,28.57c13.34,7.73,24.69,3.79,33.95-6.7c2.31-2.62,4.08-6.18,4.6-9.52c2-12.8,7.57-22.66,23.41-18.61
			c16.96,4.34,15.08,16.96,11.53,29.33C770.17,569.11,723.71,581.88,678.42,555.61z"/>
		<path d="M775.81,351.64c17.41,0.49,30.93,14.01,30.42,30.42c-0.52,16.65-14.41,28.91-32.25,28.44
			c-18.29-0.48-30.67-12.81-30.15-30.04C744.34,363.77,758.35,351.14,775.81,351.64z"/>
		<path d="M580.53,351.66c17.09-0.55,31.77,12.49,32.19,28.58c0.43,16.72-12.45,29.44-30.36,29.97
			c-17.48,0.52-32.13-12.17-32.56-28.2C549.37,366.06,563.39,352.21,580.53,351.66z"/>
	</g>
</g>
</svg>
