<svg version="1.1" id="Layer_1" xmlns="http://www.w3.org/2000/svg" xmlns:xlink="http://www.w3.org/1999/xlink" x="0px" y="0px"
	 viewBox="0 0 1366 768" style="enable-background:new 0 0 1366 768;" xml:space="preserve">
<style type="text/css">
	.st0{fill:#FFFFFF;}
</style>
<g>
	<g>
		<path d="M408.52,240.64c-39.1,16.12-43.1,39.49-49.97,62.26c-6.48,21.48-7.32,44.51-22.6,63.87
			c-16.59,21.02-43.24,40.71-72.46,57.05c-28.25,15.8-60.65,10.78-83.82-7.78c-97.75-78.34-56.9-203.09,84.26-257.27
			c84.28-32.35,188.92-24.14,257,21.06c13.8,9.16,25.03,10.02,46.75,9.21c66.38-2.49,133.27-0.35,199.95-0.89
			c12.79-0.1,29.57-2.03,37.58-6.8c95.36-56.82,222.41-55.48,313.27,4.06c97.22,63.71,112.39,144.45,41.02,218.32
			c-23.54,24.37-55.36,28.67-95.96,12.44c-56.6-22.63-74.92-55.87-83.23-92.7c-4.52-20.02-13.07-40.16-25.48-59.06
			c-7.11-10.83-25.38-19.64-52.09-10c20.59,32.41,45.89,63.81,60.28,96.72c25.22,57.71,48.3,115.97,63.47,174.71
			c9.83,38.07-4.32,76.64-33.48,112.36c-37.01,45.34-108.27,66.08-196.07,58.71c-14.43-1.21-31.7,0.47-44.96,4.01
			c-59.47,15.88-117.87,15.8-176.77-0.38c-8.88-2.44-19.68-6.46-27.82-5.41c-146.18,18.93-219.68-41.01-239.66-104.35
			c-18.5-58.66,0.09-114.96,29.2-170.46c26.26-50.05,56.24-99.55,87.99-148.59C433.93,257.77,431.8,249.43,408.52,240.64z
			 M235.55,403.47c19.94-20.35,39.83-35.97,50.93-53.36c10.15-15.91,11.44-33.68,15.47-50.72c7.1-30.04,18.58-59.01,60.94-80.39
			c27.85-14.06,59-14.65,86.74-2.6c32.57,14.16,50.56,39.76,38,55.01c-61.31,74.4-99.93,152.77-125.74,233.11
			c-12.53,39.01-6.95,78.18,20.31,115.24c19.14,26.01,51.13,44.49,104.9,46.43c52.49,1.89,90.27-12.15,118.4-35.67
			c7.82-6.54,13.23-14.02,19.28-21.19c15.51-18.38,4.52-31.57-25.13-41.62c-27.21-9.22-54.43-18.53-80.34-28.83
			c-40.03-15.92-58.63-37.35-48.15-65.4c10.06-26.95,41.28-43.23,86.19-50.06c70.55-10.73,142.33-10.85,213.03-0.05
			c48.58,7.42,78.54,25.98,87.69,54.1c8.7,26.72-12.68,46.55-49.54,61.48c-25.73,10.42-55.17,18.09-79.77,29.22
			c-14.05,6.35-30.24,17.02-30.7,25.99c-1.5,29.4,55.18,64.37,108.12,70.8c57.67,7.01,111.95-6.24,132.98-40.62
			c18.75-30.65,33.81-64.69,30.13-96.49c-10.47-90.51-55.59-176.91-122.47-259.63c-5.59-6.91-7.85-17.48-2.46-23.92
			c22.75-27.2,87.82-34.68,129.62-15.92c34.03,15.27,51.06,35.9,56.91,59.78c4.66,19.02,7.59,38.25,14.46,57.02
			c7.28,19.87,25.19,36.35,59.17,46.11c64.61-64.4,54.21-130.31-27.62-183.87c-77.15-50.49-178.31-47.31-243.99,8.44
			c-16.04,13.62-29.82,16.11-57.88,9.42c-67.52-16.09-138.73-15.38-207.13-2.32c-48.53,9.26-47.17,11.53-76.94-12.7
			c-52.58-42.78-136.53-51.26-204.78-20.69C175.68,239.04,150.12,330.44,235.55,403.47z M663.98,553.32
			c37.54-13.61,75.06-25.1,107.68-39.99c14.96-6.82,27.24-20.08,28.37-30.83c1.61-15.28-21.25-24.58-46.67-28.43
			c-59.05-8.93-118.75-8.85-177.83-0.21c-24.92,3.64-43.48,11.6-48.88,27.79c-5.41,16.19,10.49,25.23,30.2,32.81
			C591.66,527.86,627.71,540.25,663.98,553.32z M664.15,641.21c-16.27,11.45-31.91,22.45-50.93,35.84c35.41,0,65.88,0,101.8,0
			C695.02,662.96,680.1,652.46,664.15,641.21z"/>
		<path class="st0" d="M235.55,403.47c-85.43-73.03-59.87-164.43,50.6-213.91c68.25-30.57,152.2-22.09,204.78,20.69
			c29.77,24.22,28.41,21.96,76.94,12.7c68.41-13.06,139.61-13.77,207.13,2.32c28.07,6.69,41.84,4.2,57.88-9.42
			c65.68-55.75,166.84-58.93,243.99-8.44c81.84,53.56,92.23,119.47,27.62,183.87c-33.98-9.75-51.9-26.24-59.17-46.11
			c-6.87-18.77-9.8-37.99-14.46-57.02c-5.85-23.88-22.88-44.51-56.91-59.78c-41.8-18.76-106.87-11.28-129.62,15.92
			c-5.38,6.44-3.13,17,2.46,23.92c66.88,82.73,112,169.12,122.47,259.63c3.68,31.8-11.38,65.84-30.13,96.49
			c-21.03,34.38-75.31,47.63-132.98,40.62c-52.94-6.43-109.62-41.4-108.12-70.8c0.46-8.96,16.65-19.64,30.7-25.99
			c24.6-11.12,54.04-18.79,79.77-29.22c36.86-14.93,58.23-34.75,49.54-61.48c-9.15-28.12-39.11-46.69-87.69-54.1
			c-70.7-10.79-142.48-10.67-213.03,0.05c-44.9,6.83-76.13,23.11-86.19,50.06c-10.47,28.05,8.12,49.48,48.15,65.4
			c25.92,10.3,53.13,19.62,80.34,28.83c29.65,10.05,40.64,23.24,25.13,41.62c-6.05,7.17-11.46,14.65-19.28,21.19
			c-28.12,23.52-65.91,37.56-118.4,35.67c-53.78-1.94-85.77-20.42-104.9-46.43c-27.27-37.06-32.85-76.24-20.31-115.24
			c25.82-80.34,64.43-158.71,125.74-233.11c12.56-15.25-5.42-40.85-38-55.01c-27.74-12.06-58.88-11.46-86.74,2.6
			c-42.36,21.38-53.84,50.35-60.94,80.39c-4.03,17.04-5.32,34.81-15.47,50.72C275.38,367.5,255.49,383.12,235.55,403.47z
			 M587.96,346.2c-28.32,0.16-47.51,11.71-46.8,28.19c0.73,17.04,18.79,25.2,46.55,26.53c26.34,1.26,49.44-12.29,49.61-27.44
			C637.49,357.89,616.07,346.04,587.96,346.2z M739.42,401.1c26.38-0.19,49.85-13.9,48.8-28.51c-1.1-15.23-24.36-27.06-51.84-26.38
			c-26.42,0.65-46.27,12.26-46.28,27.04C690.1,388.56,712.64,401.29,739.42,401.1z"/>
		<path class="st0" d="M663.98,553.32c-36.26-13.07-72.31-25.45-107.14-38.85c-19.71-7.58-35.6-16.62-30.2-32.81
			c5.4-16.19,23.96-24.15,48.88-27.79c59.08-8.64,118.78-8.72,177.83,0.21c25.43,3.85,48.29,13.14,46.67,28.43
			c-1.14,10.75-13.41,24.01-28.37,30.83C739.03,528.21,701.52,539.7,663.98,553.32z"/>
		<path class="st0" d="M664.15,641.21c15.96,11.24,30.87,21.75,50.87,35.84c-35.92,0-66.39,0-101.8,0
			C632.24,663.67,647.88,652.66,664.15,641.21z"/>
		<path d="M587.96,346.2c28.11-0.16,49.53,11.68,49.36,27.28c-0.17,15.15-23.27,28.7-49.61,27.44
			c-27.76-1.33-45.82-9.49-46.55-26.53C540.46,357.91,559.64,346.36,587.96,346.2z"/>
		<path d="M739.42,401.1c-26.78,0.19-49.32-12.54-49.32-27.85c0-14.78,19.86-26.38,46.28-27.04c27.48-0.68,50.74,11.15,51.84,26.38
			C789.27,387.2,765.8,400.91,739.42,401.1z"/>
	</g>
</g>
</svg>
