<svg version="1.1" id="Layer_1" xmlns="http://www.w3.org/2000/svg" xmlns:xlink="http://www.w3.org/1999/xlink" x="0px" y="0px"
	 viewBox="0 0 1366 768" style="enable-background:new 0 0 1366 768;" xml:space="preserve">
<style type="text/css">
	.st0{fill:#FFFFFF;}
</style>
<g>
	<g>
	<path d="M607.41,509.31c5.09,11.37,9.92,22.15,15.19,33.91c-7.31,0.97-14.04,2.35-20.81,2.69c-67.38,3.38-132.02-9.58-192.88-43.5
			c-29.25-16.3-55.69-37.09-75.86-66.94c-1.33-1.96-2.64-3.96-3.77-6.07c-2.27-4.23-5.92-8.45-6.12-12.85
			c-0.17-3.6,3.87-7.43,5.97-11.21c10.81-19.41,10.29-34.35-4.02-53.42c-2.63-3.51-2.7-5.62-0.83-9.22
			c13.36-25.83,32.96-44.2,54.96-59.56c39.2-27.36,82.23-42.62,127.23-51.35c28.97-5.62,58.16-8.01,87.52-6.84
			c40.36,1.61,78.3,14.32,114.66,33.69c48.91,26.06,91.75,62.06,130.73,104.34c3.13,3.39,4.51,6.71,4,11.79
			c-0.58,5.78-0.49,11.77,0.13,17.56c0.86,8.1-1.67,13.59-6.93,19.15c-43.56,46.16-91.39,84.8-146.78,110.52
			c-4.12,1.91-7,1.75-10.68-1.36c-10.29-8.71-20.37-18.1-33.46-21.08C631.96,496.45,619.41,499.41,607.41,509.31z M422.99,404.07
			c20.54-0.06,37.13-18.97,36.95-42.12c-0.18-23.29-16.85-42.18-37.15-42.11c-20.23,0.07-37.09,19.36-36.98,42.33
			C385.91,385.44,402.5,404.13,422.99,404.07z M817.44,402.27c6.76-0.09,12.74-7.35,12.49-15.16c-0.25-7.58-6.28-14.13-12.89-14
			c-6.7,0.13-12.39,6.72-12.45,14.43C804.52,395.42,810.58,402.37,817.44,402.27z M568.83,432.52c7.06-0.01,12.82-6.7,12.7-14.73
			c-0.12-7.67-5.86-14.09-12.64-14.12c-6.81-0.03-12.54,6.32-12.69,14.06C556.04,425.83,561.77,432.53,568.83,432.52z M663.9,262.74
			c0.05-8.05-5.84-14.78-12.79-14.62c-6.67,0.16-12.36,6.78-12.41,14.45c-0.05,8.08,5.78,14.7,12.84,14.56
			C658.41,276.99,663.85,270.66,663.9,262.74z M775.35,344.43c6.92-0.09,12.48-6.34,12.57-14.13c0.09-8.09-5.63-14.67-12.74-14.64
			c-6.98,0.03-12.78,6.86-12.59,14.85C762.76,338.17,768.58,344.52,775.35,344.43z M748.99,350.95c0.09-7.72-5.96-14.75-12.74-14.79
			c-6.73-0.04-12.94,7.02-12.87,14.64c0.07,7.48,5.86,14.19,12.44,14.43C742.56,365.47,748.9,358.6,748.99,350.95z M779.99,422.17
			c-6.75-0.01-12.55,6.45-12.65,14.13c-0.11,8.04,5.66,14.73,12.73,14.75c6.73,0.01,12.51-6.45,12.64-14.14
			C792.84,428.83,787.11,422.19,779.99,422.17z M703.8,470.02c-6.83-0.01-12.55,6.3-12.72,14.02c-0.18,8.02,5.57,14.75,12.64,14.78
			c6.8,0.03,12.52-6.3,12.67-14.03C716.55,476.62,710.93,470.02,703.8,470.02z M591.06,295.25c-0.02,8.06,5.78,14.53,12.9,14.39
			c6.84-0.14,12.35-6.54,12.36-14.37c0.02-7.69-5.6-14.27-12.35-14.47C596.99,280.59,591.08,287.2,591.06,295.25z M710.69,303.72
			c-0.06-7.74-5.72-14.13-12.56-14.17c-6.99-0.05-12.92,6.74-12.82,14.66c0.1,7.55,5.99,14.19,12.63,14.26
			C704.89,318.55,710.75,311.76,710.69,303.72z M656.18,349.85c7.09,0.5,13.18-5.7,13.49-13.72c0.3-7.81-4.93-14.47-11.76-15
			c-6.92-0.53-12.88,5.27-13.36,13.02C644.03,342.46,649.14,349.35,656.18,349.85z M582.62,336.44
			c-0.03-7.51-5.87-14.02-12.66-14.11c-7.01-0.1-13.09,6.67-12.98,14.46c0.11,7.57,5.99,14.17,12.68,14.23
			C576.69,351.08,582.64,344.39,582.62,336.44z M783.97,382.29c0.01-7.79-5.54-14.46-12.17-14.66c-6.91-0.2-12.97,6.59-12.98,14.53
			c-0.01,7.96,6,14.81,12.87,14.68C778.28,396.71,783.97,389.98,783.97,382.29z M734.35,405.87c-6.85-0.16-12.47,6.09-12.58,14
			c-0.11,8.32,5.35,14.87,12.45,14.91c6.76,0.04,12.51-6.32,12.71-14.07C747.14,412.62,741.56,406.04,734.35,405.87z M650.12,465.07
			c7.13,0.14,12.99-6.37,12.96-14.41c-0.03-7.71-5.67-14.16-12.47-14.28c-6.97-0.12-13.06,6.63-13,14.4
			C637.67,458.48,643.32,464.93,650.12,465.07z M597.09,492.16c7.01-0.04,12.47-6.16,12.55-14.05c0.08-8.09-5.7-14.72-12.75-14.63
			c-6.82,0.09-12.48,6.46-12.6,14.19C584.15,485.68,589.92,492.2,597.09,492.16z M628.68,394.93c0.37-8.06-5.23-15-12.27-15.22
			c-6.72-0.21-12.63,5.98-13.08,13.7c-0.45,7.83,5.32,14.93,12.34,15.16C622.54,408.81,628.32,402.74,628.68,394.93z M550.07,499.34
			c0.15-7.68-5.43-14.42-12.16-14.68c-7.06-0.28-13.09,6.19-13.22,14.19c-0.12,7.61,5.53,14.46,12.18,14.75
			C543.82,513.91,549.91,507.33,550.07,499.34z M553.06,269.6c6.88,0.05,12.89-6.93,12.76-14.81c-0.13-7.68-5.92-14.16-12.65-14.15
			c-6.76,0.02-12.57,6.39-12.81,14.05C540.11,262.39,546.21,269.55,553.06,269.6z M694.61,401.97c0.09-7.64-5.54-14.29-12.31-14.55
			c-7.11-0.27-13,6.1-13.13,14.21c-0.12,7.72,5.39,14.29,12.23,14.56C688.4,416.48,694.52,409.88,694.61,401.97z M659.85,493.6
			c-28.94-22.99-61.56,1.07-64.86,23.05C611.45,491.49,632.45,483.62,659.85,493.6z"/>
		<path d="M953.27,559.18c-2.67-28.86-18.13-47.1-36.49-62.91c-7.08-6.1-14.95-11-22.32-16.68c-29.63-22.85-44.72-53.98-45.41-95.5
			c-0.62-37.23,15.84-62.72,39.17-84.36c9.91-9.19,21.28-16.34,32.05-24.32c2.81-2.08,5.91-3.66,8.75-5.69
			c16.95-12.13,32.6-25.65,39.5-49.89c6.03,23.95,10.45,47.01,11.1,70.57c0.46,16.55-0.09,33.44-2.51,49.72
			c-3,20.14-12.48,35.95-31.16,42.57c0.64,0.93,1,1.74,1.57,2.22c26.06,22.1,34.92,52.51,32.04,88.09
			c-2.43,30.1-11.83,57.75-24.59,84.02C954.69,557.59,954.21,558.01,953.27,559.18z"/>
		<path d="M687.79,243.48c-5.15-7.62-10.3-15.24-15.45-22.86c-0.43,0.34-0.86,0.68-1.29,1.01c2.59,5.14,5.18,10.28,7.76,15.42
			c-0.34,0.43-0.68,0.87-1.02,1.3c-6.22-3.46-14.27-2.18-17.74-12.66c-1.9-5.74-6.81-10.18-11.37-14.38
			c2.94,6.04,5.89,12.08,9.55,19.6c-8.74-2.31-15.83-4.03-22.82-6.16c-1.17-0.36-1.95-2.48-2.86-3.84
			c-3.41-5.07-6.8-10.17-10.2-15.25c-0.43,0.33-0.86,0.66-1.3,0.99c2.45,5.16,4.89,10.31,7.7,16.23
			c-10.44-1.26-19.85-2.25-29.2-3.66c-1.37-0.21-2.64-2.27-3.73-3.7c-3.15-4.13-6.19-8.38-10.38-11.61
			c2.32,4.54,4.64,9.08,7.87,15.41c-11.08,0-20.88,0.11-30.67-0.16c-0.99-0.03-2.02-2.22-2.88-3.54
			c-3.63-5.53-7.2-11.11-10.79-16.67c-0.43,0.3-0.86,0.6-1.28,0.9c2.85,6.23,5.71,12.47,8.93,19.51c-9.91,1.07-18.54,2.23-27.2,2.75
			c-1.62,0.1-3.79-2.02-4.97-3.76c-4.12-6.07-7.92-12.42-11.85-18.67c-0.39,0.33-0.78,0.66-1.17,0.98
			c3.24,7.19,6.48,14.38,10.13,22.47c-8.83,1.72-16.17,3.14-22.23,4.32c-5.37-8.36-10.24-15.93-15.11-23.51
			c-0.35,0.3-0.69,0.6-1.04,0.9c3.32,7.62,6.65,15.23,10.25,23.49c-9.73,2.73-17.93,5.14-26.2,7.21c-1.06,0.27-3.26-0.96-3.59-2.03
			c-2.8-9.1-5.55-18.25-7.78-27.55c-1.31-5.49,0.93-8.96,6.15-9.91c18.34-3.32,36.58-7.53,55.01-10.05
			c25.97-3.55,52.1-4.5,78.21-1.63c34.25,3.76,65.21,16.28,89.64,45.22c2.61,3.09,3.77,7.76,5.61,11.7
			C689.6,242.03,688.69,242.76,687.79,243.48z"/>
		<path d="M616.64,515.98c13.35-12.37,31.3-13.05,46.54-1.2c15.83,12.31,31.09,25.57,46.57,38.46c3.45,2.87,6.77,5.95,11.08,9.75
			c-20.59,8.31-39.71,17.28-60.75,18.41c-5.16,0.28-9.28-1.82-12.51-6.25C634.53,557.33,625.92,536.56,616.64,515.98z
			 M685.92,569.53c-13.27-14.49-26.26-28.66-37.36-40.79C656.13,544.92,665.57,563.21,685.92,569.53z M666.04,532.52
			c5.48,14.19,21.94,28.91,35.09,30.34C689.18,552.52,676.92,541.92,666.04,532.52z M670.31,574.9
			c-10.27-12.18-19.85-23.55-28.64-33.97C647.34,554.67,654.4,568.78,670.31,574.9z"/>
		<path d="M301.89,381.36c-1.17-0.77-2.15-1.48-3.17-2.07c-7.27-4.21-9.97-8.69-9.3-15.46c0.78-7.87,6.56-16.82,12.79-17.7
			c3.52-0.5,8.4,0.43,10.87,2.99c18.72,19.4,18.39,45.43-0.14,64.6c-6.18,6.4-14.61,3.72-20.18-5.44
			c-5.35-8.8-4.36-18.05,2.56-23.01C297.32,383.85,299.5,382.77,301.89,381.36z"/>
		<path class="st0" d="M422.99,404.07c-20.49,0.06-37.08-18.63-37.19-41.9c-0.1-22.97,16.75-42.26,36.98-42.33
			c20.3-0.07,36.97,18.82,37.15,42.11C460.12,385.1,443.53,404.01,422.99,404.07z M431.83,339.57c-9.38-4.91-19.8-2.22-25.95,6.41
			c-6.64,9.33-6.71,22.45-0.19,31.89c6.13,8.87,16.99,11.82,26.24,7.13c8.67-4.39,13.79-14.38,12.35-24.03
			c-7.49,3.02-11.97,2.06-15.39-3.3C425.7,352.64,426.53,346.91,431.83,339.57z"/>
		<path class="st0" d="M817.44,402.27c-6.85,0.1-12.91-6.85-12.85-14.73c0.06-7.71,5.75-14.3,12.45-14.43
			c6.62-0.13,12.64,6.42,12.89,14C830.18,394.92,824.2,402.18,817.44,402.27z"/>
		<path class="st0" d="M568.83,432.52c-7.06,0.01-12.78-6.68-12.63-14.79c0.15-7.75,5.88-14.1,12.69-14.06
			c6.78,0.03,12.52,6.45,12.64,14.12C581.65,425.82,575.89,432.5,568.83,432.52z"/>
		<path class="st0" d="M663.9,262.74c-0.05,7.92-5.49,14.25-12.35,14.39c-7.06,0.14-12.89-6.47-12.84-14.56
			c0.05-7.67,5.74-14.3,12.41-14.45C658.06,247.96,663.95,254.69,663.9,262.74z"/>
		<path class="st0" d="M775.35,344.43c-6.77,0.08-12.59-6.26-12.76-13.92c-0.18-7.99,5.61-14.82,12.59-14.85
			c7.11-0.03,12.83,6.55,12.74,14.64C787.82,338.09,782.26,344.34,775.35,344.43z"/>
		<path class="st0" d="M748.99,350.95c-0.09,7.64-6.43,14.52-13.17,14.27c-6.58-0.24-12.37-6.95-12.44-14.43
			c-0.07-7.61,6.14-14.68,12.87-14.64C743.02,336.2,749.08,343.23,748.99,350.95z"/>
		<path class="st0" d="M779.99,422.17c7.12,0.02,12.85,6.66,12.71,14.73c-0.13,7.7-5.91,14.16-12.64,14.14
			c-7.06-0.01-12.84-6.7-12.73-14.75C767.44,428.63,773.23,422.16,779.99,422.17z"/>
		<path class="st0" d="M703.8,470.02c7.13,0.01,12.74,6.6,12.59,14.77c-0.15,7.73-5.87,14.06-12.67,14.03
			c-7.07-0.03-12.82-6.76-12.64-14.78C691.25,476.32,696.97,470.01,703.8,470.02z"/>
		<path class="st0" d="M591.06,295.25c0.02-8.05,5.93-14.66,12.92-14.45c6.75,0.2,12.37,6.78,12.35,14.47
			c-0.02,7.83-5.52,14.23-12.36,14.37C596.83,309.78,591.03,303.31,591.06,295.25z"/>
		<path class="st0" d="M710.69,303.72c0.06,8.04-5.8,14.82-12.74,14.75c-6.64-0.07-12.53-6.72-12.63-14.26
			c-0.11-7.92,5.83-14.71,12.82-14.66C704.97,289.6,710.64,295.99,710.69,303.72z"/>
		<path class="st0" d="M656.18,349.85c-7.04-0.5-12.15-7.39-11.63-15.7c0.48-7.75,6.44-13.55,13.36-13.02
			c6.83,0.52,12.06,7.19,11.76,15C669.36,344.16,663.27,350.35,656.18,349.85z"/>
		<path class="st0" d="M582.62,336.44c0.03,7.95-5.92,14.64-12.95,14.57c-6.69-0.06-12.57-6.66-12.68-14.23
			c-0.11-7.78,5.96-14.55,12.98-14.46C576.75,322.42,582.59,328.93,582.62,336.44z"/>
		<path class="st0" d="M783.97,382.29c-0.01,7.69-5.69,14.43-12.28,14.55c-6.87,0.13-12.88-6.72-12.87-14.68
			c0.01-7.95,6.08-14.74,12.98-14.53C778.43,367.82,783.98,374.5,783.97,382.29z"/>
		<path class="st0" d="M734.35,405.87c7.21,0.16,12.79,6.75,12.58,14.84c-0.2,7.75-5.95,14.11-12.71,14.07
			c-7.1-0.04-12.56-6.59-12.45-14.91C721.88,411.97,727.49,405.72,734.35,405.87z"/>
		<path class="st0" d="M650.12,465.07c-6.8-0.13-12.45-6.59-12.51-14.29c-0.06-7.78,6.03-14.52,13-14.4
			c6.8,0.12,12.44,6.57,12.47,14.28C663.11,458.69,657.25,465.21,650.12,465.07z"/>
		<path class="st0" d="M597.09,492.16c-7.17,0.04-12.94-6.48-12.81-14.49c0.13-7.73,5.78-14.09,12.6-14.19
			c7.05-0.1,12.83,6.53,12.75,14.63C609.56,486,604.1,492.11,597.09,492.16z"/>
		<path class="st0" d="M628.68,394.93c-0.35,7.81-6.14,13.88-13.01,13.65c-7.02-0.24-12.79-7.33-12.34-15.16
			c0.44-7.72,6.36-13.92,13.08-13.7C623.44,379.93,629.04,386.87,628.68,394.93z"/>
		<path class="st0" d="M550.07,499.34c-0.15,7.99-6.24,14.57-13.2,14.26c-6.65-0.3-12.3-7.14-12.18-14.75
			c0.13-8,6.15-14.47,13.22-14.19C544.64,484.92,550.22,491.66,550.07,499.34z"/>
		<path class="st0" d="M553.06,269.6c-6.84-0.05-12.94-7.21-12.7-14.9c0.24-7.66,6.05-14.04,12.81-14.05
			c6.73-0.02,12.52,6.46,12.65,14.15C565.94,262.67,559.93,269.65,553.06,269.6z"/>
		<path class="st0" d="M694.61,401.97c-0.09,7.91-6.21,14.51-13.21,14.23c-6.84-0.27-12.35-6.84-12.23-14.56
			c0.13-8.11,6.01-14.48,13.13-14.21C689.07,387.68,694.7,394.33,694.61,401.97z"/>
		<path class="st0" d="M659.85,493.6c-27.41-9.98-48.41-2.1-64.86,23.05C598.3,494.66,630.91,470.61,659.85,493.6z"/>
		<path class="st0" d="M685.92,569.53c-20.35-6.32-29.79-24.61-37.36-40.79C659.67,540.86,672.65,555.04,685.92,569.53z"/>
		<path class="st0" d="M666.04,532.52c10.88,9.41,23.14,20.01,35.09,30.34C687.99,561.43,671.52,546.71,666.04,532.52z"/>
		<path class="st0" d="M670.31,574.9c-15.91-6.12-22.97-20.23-28.64-33.97C650.46,551.36,660.04,562.72,670.31,574.9z"/>
		<path d="M431.83,339.57c-5.3,7.34-6.13,13.07-2.93,18.1c3.41,5.36,7.9,6.33,15.39,3.3c1.45,9.65-3.68,19.64-12.35,24.03
			c-9.26,4.69-20.11,1.74-26.24-7.13c-6.52-9.44-6.45-22.56,0.19-31.89C412.03,337.34,422.45,334.66,431.83,339.57z"/>
	</g>
</g>
</svg>
