<svg version="1.1" id="Layer_1" xmlns="http://www.w3.org/2000/svg" xmlns:xlink="http://www.w3.org/1999/xlink" x="0px" y="0px"
	 viewBox="0 0 1366 768" style="enable-background:new 0 0 1366 768;" xml:space="preserve">
<style type="text/css">
	.st0{fill:#FFFFFF;}
</style>
<g>
	<g>
		<path d="M336.22,248.05c0-25.95-7.2-52.89,1.48-77.66c18.62-53.12,104.19-71.49,176.67-40.95c6.14,2.59,13.59,4.96,17.29,8.65
			c26.32,26.24,63.31,33.27,110.02,25.61c8.96-1.47,19.21-0.92,28.61-0.11c56.61,4.85,105.64,3.24,146.92-29.58
			c27.83-22.13,76.7-25.76,120.75-13.42c50.63,14.18,67.94,42.81,70.1,74.67c1.05,15.48-3.73,31.86-11.8,46.58
			c-6.4,11.68-1.64,17.71,10.39,25.71c31.92,21.21,65.4,41.94,92.51,65.43c41.68,36.12,51.84,74.7,7.37,114.29
			c-6.36,5.66-5.46,14.85-6.31,22.48c-4.38,39.44-2.28,79.57-13.52,118.21c-22.41,77-96.9,122.17-222.67,127.07
			c-135.38,5.27-271.93,4.44-407.5,0.33c-96.93-2.94-161.51-40.02-193.76-97.26c-25.35-44.98-32.71-91.36-27.57-138.86
			c0.97-8.99-1.69-20.38-10.04-27.13c-37.22-30.08-44.64-63.64-16.02-94.94c30.07-32.88,71.8-61.66,109.05-91.94
			c6.98-5.67,16.85-9.97,25.39-14.9C341.14,249.57,338.68,248.81,336.22,248.05z M283.8,487.04c1.94,23.96,1.25,43.23,5.52,62.08
			c8.36,36.91,19.74,74.12,63.66,101.92c58.69,37.16,118.62,40.66,181.37,17.64c10.05-3.69,14.71-13.06,21.87-19.8
			c-11.94-4.25-23.85-11.96-35.82-11.99c-20.66-0.06-41.22,6.04-62.09,6.81c-11.44,0.42-23.41-4.78-35.14-7.45
			c5.9-7.41,9.66-19.95,18.1-21.32c32.42-5.26,66.58-10.15,99.64-9.18c45.3,1.33,75.61,28.64,65.89,54.75
			c-3.43,9.23-12.26,17.68-19.35,27.48c26.32,0,51.6,0,76.88,0c24.88,0,49.77,0,78.21,0c-4.4-4.67-6.44-6.82-8.46-8.97
			c-33.87-36.19-2.56-73.49,64.52-74.16c27.02-0.27,54.34,4.55,81.22,7.98c18.73,2.39,32.32,9.17,24.85,22.48
			c-7,12.46-23.43,10.54-40.14,8.1c-20.52-3-41.49-6.42-62.27-6.46c-9.93-0.02-24.15,6.12-28.38,11.8
			c-2.88,3.87,6.37,12.84,13.56,17.54c6.93,4.54,17.96,6.8,27.54,9.6c73.44,21.42,182.9-14.97,207.26-62.67
			c12.77-25.01,19.91-51.34,25.96-77.4c3.76-16.18,0.7-32.97,0.7-50.11c-41.52,17.21-78.16,34.31-117.66,48.27
			c-48.33,17.08-101.06,25.31-156.53,15.3c-53.13-9.58-72.17-44.96-40.31-73.18c24.24-21.46,60.14-30.56,100.15-34.89
			c18.76-2.03,38.16-0.7,37.89,12.93c-0.12,6.26-17.42,13.87-29.42,18.19c-17.14,6.18-38.02,8.53-54.41,15.26
			c-8.74,3.59-17.17,13.73-15.12,19.45c1.97,5.5,16.8,11.61,27.43,12.94c15.08,1.88,31.96,1,47.24-1.08
			c82.93-11.27,142.67-45.97,200.69-80.89c44.11-26.55,46.18-49.52,12.97-81.89c-15.33-14.94-34.59-28.45-53.57-41.78
			c-18.33-12.87-38.14-24.98-58.14-36.87c-18.77-11.16-22.46-22.16-8.69-36.92c19.03-20.41,21.18-42.82,9.35-65.31
			c-14.32-27.22-56.78-37.16-93.82-20.24c-20.07,9.17-36.12,22.16-51.77,34.52c-11.73,9.26-22.82,12.23-42.92,11.45
			c-56.98-2.19-114.54-3.82-171.27-0.97c-30.59,1.54-49.49-0.33-65.88-17.39c-10.51-10.95-27.34-20.51-44.49-27.83
			c-38.21-16.33-82.84-7.15-92.14,21.02c-6.11,18.48-5.91,40.5,4.81,57.7c12.58,20.19,4.93,29.28-17.49,43.76
			c-43.11,27.84-82.96,58.22-117.82,90.23c-21.82,20.04-23.39,46.04,9.69,63.79c49.73,26.69,100.61,53.34,156.3,74.63
			c28.58,10.93,68.44,11.27,103.68,13.97c8.59,0.66,23.72-7.18,27.18-13.08c2.69-4.59-5.42-15.16-13.37-17.96
			c-20.85-7.34-45.27-10.73-66.15-18.04c-9.52-3.33-18.89-12.13-19.06-18.55c-0.11-3.9,18.93-12.26,26.83-11.21
			c26.57,3.52,53.88,8.26,77.46,16.41c39.3,13.58,55.49,38.17,45.32,60.01c-9.87,21.17-42.19,34.79-87.03,35.7
			c-55.1,1.11-104.72-9.95-150.11-28.58C342.36,513.7,317.12,501.81,283.8,487.04z"/>
		<path class="st0" d="M283.8,487.04c33.32,14.77,58.56,26.66,84.94,37.48c45.39,18.62,95.01,29.69,150.11,28.58
			c44.84-0.91,77.16-14.52,87.03-35.7c10.17-21.84-6.02-46.43-45.32-60.01c-23.57-8.15-50.89-12.89-77.46-16.41
			c-7.9-1.05-26.94,7.31-26.83,11.21c0.18,6.42,9.54,15.22,19.06,18.55c20.88,7.31,45.3,10.71,66.15,18.04
			c7.95,2.8,16.06,13.37,13.37,17.96c-3.47,5.9-18.59,13.74-27.18,13.08c-35.24-2.7-75.1-3.04-103.68-13.97
			c-55.69-21.29-106.56-47.94-156.3-74.63c-33.08-17.75-31.51-43.75-9.69-63.79c34.85-32.01,74.7-62.39,117.82-90.23
			c22.42-14.48,30.07-23.57,17.49-43.76c-10.72-17.21-10.92-39.22-4.81-57.7c9.31-28.17,53.93-37.35,92.14-21.02
			c17.14,7.33,33.97,16.88,44.49,27.83c16.38,17.06,35.28,18.93,65.88,17.39c56.72-2.85,114.29-1.22,171.27,0.97
			c20.1,0.77,31.19-2.19,42.92-11.45c15.65-12.36,31.7-25.35,51.77-34.52c37.04-16.92,79.5-6.98,93.82,20.24
			c11.83,22.49,9.68,44.91-9.35,65.31c-13.77,14.77-10.07,25.76,8.69,36.92c20,11.89,39.81,24,58.14,36.87
			c18.98,13.33,38.24,26.84,53.57,41.78c33.21,32.37,31.13,55.34-12.97,81.89c-58.02,34.92-117.76,69.62-200.69,80.89
			c-15.28,2.08-32.17,2.96-47.24,1.08c-10.63-1.33-25.46-7.44-27.43-12.94c-2.04-5.71,6.38-15.86,15.12-19.45
			c16.38-6.73,37.27-9.08,54.41-15.26c11.99-4.33,29.29-11.94,29.42-18.19c0.27-13.63-19.13-14.96-37.89-12.93
			c-40,4.34-75.91,13.43-100.15,34.89c-31.86,28.21-12.82,63.6,40.31,73.18c55.47,10,108.2,1.78,156.53-15.3
			c39.5-13.96,76.14-31.06,117.66-48.27c0,17.14,3.06,33.93-0.7,50.11c-6.05,26.06-13.19,52.39-25.96,77.4
			c-24.36,47.7-133.83,84.09-207.26,62.67c-9.58-2.8-20.61-5.06-27.54-9.6c-7.18-4.7-16.44-13.68-13.56-17.54
			c4.22-5.67,18.44-11.81,28.38-11.8c20.79,0.04,41.75,3.46,62.27,6.46c16.71,2.44,33.14,4.36,40.14-8.1
			c7.48-13.31-6.12-20.09-24.85-22.48c-26.88-3.43-54.2-8.25-81.22-7.98c-67.08,0.68-98.39,37.97-64.52,74.16
			c2.02,2.16,4.05,4.3,8.46,8.97c-28.44,0-53.32,0-78.21,0c-25.28,0-50.56,0-76.88,0c7.09-9.8,15.91-18.25,19.35-27.48
			c9.72-26.11-20.6-53.42-65.89-54.75c-33.06-0.97-67.22,3.92-99.64,9.18c-8.43,1.37-12.19,13.91-18.1,21.32
			c11.73,2.67,23.7,7.87,35.14,7.45c20.86-0.77,41.43-6.87,62.09-6.81c11.97,0.03,23.88,7.74,35.82,11.99
			c-7.15,6.74-11.82,16.12-21.87,19.8c-62.74,23.01-122.68,19.52-181.37-17.64c-43.92-27.81-55.3-65.01-63.66-101.92
			C285.05,530.28,285.74,511,283.8,487.04z M619.87,388.89c-4.24-0.36-15.21-2.64-25.57-1.83c-12.07,0.94-23.6,4.57-35.36,7.03
			c4.67,7.22,7.92,20.14,14.23,20.74c42.21,4.05,85.01,6.15,127.74,7.33c12.87,0.35,28.85-2.22,38.3-7.2
			c8.28-4.36,9.39-13.99,13.67-21.3c-11.87-2.3-23.54-5.73-35.67-6.55c-9.87-0.67-20.29,1.79-33.88,3.22
			c24.41-32.49,26.51-41.16,12.23-42.48c-26.82-2.5-54.88,0.14-82.42,0.65C615.19,360.82,617.24,373.14,619.87,388.89z
			 M621.35,304.69c-1.74-15.31-15.71-24.57-39.91-24.7c-24.45-0.14-39.84,9.3-39.76,24.72c0.08,15.21,14.43,24.9,39.47,24.79
			C605.63,329.39,619.66,320.57,621.35,304.69z M745.47,329.79c23.05,0.41,40.67-10.12,41.04-24.54
			c0.36-13.97-17.84-26.24-39.74-25.47c-23.22,0.82-37.52,8.76-39.44,23.66C705.53,317.47,723.2,329.39,745.47,329.79z"/>
		<path d="M619.87,388.89c-2.62-15.75-4.68-28.08-6.73-40.4c27.54-0.5,55.6-3.14,82.42-0.65c14.28,1.33,12.18,10-12.23,42.48
			c13.59-1.43,24.01-3.88,33.88-3.22c12.13,0.82,23.8,4.25,35.67,6.55c-4.28,7.3-5.39,16.93-13.67,21.3
			c-9.45,4.98-25.44,7.55-38.3,7.2c-42.72-1.17-85.53-3.28-127.74-7.33c-6.3-0.6-9.56-13.52-14.23-20.74
			c11.76-2.46,23.29-6.09,35.36-7.03C604.65,386.26,615.62,388.53,619.87,388.89z"/>
		<path d="M621.35,304.69c-1.69,15.88-15.72,24.7-40.21,24.81c-25.03,0.11-39.39-9.58-39.47-24.79
			c-0.08-15.43,15.31-24.86,39.76-24.72C605.64,280.12,619.61,289.38,621.35,304.69z"/>
		<path d="M745.47,329.79c-22.27-0.4-39.94-12.32-38.13-26.35c1.92-14.9,16.21-22.84,39.44-23.66c21.9-0.77,40.1,11.5,39.74,25.47
			C786.14,319.66,768.52,330.2,745.47,329.79z"/>
	</g>
</g>
</svg>
