<svg version="1.1" id="Layer_1" xmlns="http://www.w3.org/2000/svg" xmlns:xlink="http://www.w3.org/1999/xlink" x="0px" y="0px"
	 viewBox="0 0 1366 768" style="enable-background:new 0 0 1366 768;" xml:space="preserve">
<style type="text/css">
	.st0{fill:#FFFFFF;}
</style>
<g>
	<g>
		<path d="M291.36,541.28c-74.36-67.09-81.48-138.37-25.26-209.33c57.81-72.96,156.31-96.86,272.25-86.68
			c-4.36-22-10.19-42.73-12.05-63.62c-1.46-16.35,5.53-32.04,30.52-39.5c26.32-7.85,50.56-2.46,68.61,10.92
			c21.99,16.3,40.79,34.59,61.92,52.84c1.57-3.87,3.1-8.55,5.36-13.05c6.38-12.7,11.69-25.77,19.98-37.88
			c9.69-14.17,26.37-23.14,50.96-22.93c24.3,0.21,43.02,8.59,50.85,23.09c10.57,19.59,18.98,40.14,23.15,60.76
			c4.33,21.38,3.01,43.33,3.11,65.03c0.04,9.81,2.54,15.24,19.3,18.5c140.08,27.26,178.02,145.18,131.58,210.33
			c-28.34,39.76-81.32,55.99-152.52,44.95c-18.91-2.93-31.73-2.14-41.53,10.26c18.66,19.05,26.4,39.71,4.27,60.01
			c-29.14,26.74-71.81,34.11-117.74,31.24c-40.56-2.54-75.16-13.51-91.65-41.95c-1.82-3.14-10.04-5.85-15.82-6.45
			c-22.22-2.32-44.64-3.7-69.09-5.6c-4.52,31.9-30.47,50.88-77.35,53.58c-57.26,3.3-103.36-12.69-136.87-43.54
			C269.22,590.03,265.88,565.81,291.36,541.28z M969.46,449.39c-0.88-67.29-51.76-110.21-149.2-127.32
			c-8.69-1.53-18.83-11.75-19.83-18.52c-2.75-18.6,1.09-37.64-1.56-56.25c-3.45-24.33-9.78-48.53-16.84-72.52
			c-1.55-5.25-11.39-9.39-17.41-14.04c-6.79,4.71-14.47,8.99-20.07,14.28c-3.87,3.65-5.3,8.62-7.07,13.14
			c-16.32,41.81-20.81,82.9,13.97,122.19c7.92,8.94,12.09,20.15-6.49,25.44c-18.27,5.21-25.58-4.4-31.83-14.35
			c-18.26-29.12-35.07-58.8-56.64-86.77c-16.62-21.56-39.09-41.12-60.19-60.97c-3.65-3.43-14.98-6.31-20.05-4.91
			c-4.77,1.32-8.98,8.86-8.18,13.23c3.07,16.74,4.22,34.41,13.37,49.74c32.37,54.26,63.11,109.59,137.57,146.12
			c5.69,2.79,6.71,14.05,3.38,19.55c-1.81,3-18.24,4.17-26.51,2.54c-9.36-1.85-17.35-7.47-25.27-11.99
			c-46.38-26.41-71.93-62.48-99.11-97.88c-4.36-5.68-12-13.36-19.61-14.25c-49.81-5.82-99.17-6.92-147.81,6.81
			C263.41,322.41,231,455.88,329.25,525.7c16.47,11.7,23.97,21.16-0.63,32.42c-16.42,7.52-14.97,18.75-7.48,29.92
			c14.74,21.96,60.64,41.2,97.05,40.62c34.6-0.55,48.67-12.75,41.83-36.51c-3.92-13.62,3.98-20.77,24.53-19.56
			c41.39,2.43,82.87,4.71,123.89,8.94c8.53,0.88,16.33,9.45,22.43,15.42c6.08,5.96,7.31,14.75,14.64,19.47
			c28.41,18.34,93.46,15.05,118.75-5.03c12.2-9.7,11.07-19.13-1.43-28.23c-27.6-20.09-27.6-20.06,1.94-38.37
			c4.46-2.77,9.59-5.34,12.77-8.71c15.13-16.04,33.25-17.16,59.7-11.27c69.09,15.38,112.46-2.86,127.73-51.08
			C967.49,465.78,968.02,457.52,969.46,449.39z"/>
		<path class="st0" d="M969.46,449.39c-1.45,8.13-1.97,16.39-4.5,24.35c-15.27,48.23-58.64,66.47-127.73,51.08
			c-26.45-5.89-44.57-4.77-59.7,11.27c-3.18,3.37-8.31,5.94-12.77,8.71c-29.54,18.31-29.54,18.28-1.94,38.37
			c12.5,9.1,13.64,18.53,1.43,28.23c-25.28,20.08-90.34,23.38-118.75,5.03c-7.32-4.73-8.56-13.51-14.64-19.47
			c-6.1-5.98-13.9-14.54-22.43-15.42c-41.02-4.23-82.5-6.51-123.89-8.94c-20.55-1.21-28.46,5.94-24.53,19.56
			c6.84,23.76-7.23,35.96-41.83,36.51c-36.41,0.58-82.31-18.66-97.05-40.62c-7.49-11.17-8.94-22.4,7.48-29.92
			c24.6-11.26,17.1-20.72,0.63-32.42c-98.25-69.82-65.84-203.29,74.83-243.02c48.63-13.74,98-12.64,147.81-6.81
			c7.61,0.89,15.25,8.56,19.61,14.25c27.18,35.4,52.73,71.47,99.11,97.88c7.93,4.51,15.91,10.13,25.27,11.99
			c8.27,1.64,24.7,0.46,26.51-2.54c3.33-5.51,2.31-16.76-3.38-19.55c-74.47-36.53-105.2-91.86-137.57-146.12
			c-9.15-15.33-10.3-33-13.37-49.74c-0.8-4.36,3.41-11.91,8.18-13.23c5.07-1.4,16.4,1.48,20.05,4.91
			c21.11,19.84,43.57,39.41,60.19,60.97c21.57,27.98,38.37,57.66,56.64,86.77c6.24,9.95,13.56,19.55,31.83,14.35
			c18.59-5.3,14.41-16.5,6.49-25.44c-34.78-39.29-30.29-80.38-13.97-122.19c1.76-4.52,3.2-9.49,7.07-13.14
			c5.6-5.29,13.28-9.57,20.07-14.28c6.02,4.65,15.87,8.78,17.41,14.04c7.06,23.99,13.39,48.19,16.84,72.52
			c2.64,18.61-1.2,37.65,1.56,56.25c1,6.76,11.14,16.99,19.83,18.52C917.7,339.18,968.58,382.1,969.46,449.39z M894.66,427.51
			c-0.51-14.15-17.23-25.24-38.11-25.29c-21.86-0.05-39.45,12-38.86,26.62c0.6,15,17.98,25.6,40.79,24.9
			C879.73,453.08,895.18,441.88,894.66,427.51z"/>
		<path d="M894.66,427.51c0.52,14.36-14.93,25.57-36.18,26.23c-22.82,0.71-40.19-9.9-40.79-24.9
			c-0.59-14.62,17.01-26.67,38.86-26.62C877.43,402.27,894.15,413.37,894.66,427.51z"/>
	</g>
</g>
</svg>
